<svg xmlns="http://www.w3.org/2000/svg" width="960" height="600" viewBox="0 0 960 600" role="img" aria-labelledby="title description">
  <title id="title">Synthetic demo identity document</title>
  <description id="description">Generic non-government identity placeholder for the NCRP experience prototype.</description>
  <rect width="960" height="600" rx="18" fill="#f5f9fc"/>
  <rect x="3" y="3" width="954" height="594" rx="15" fill="none" stroke="#113a63" stroke-width="6"/>
  <rect x="0" y="0" width="960" height="22" rx="18" fill="#e69a2a"/>
  <rect x="0" y="152" width="960" height="2" fill="#ccd6df"/>
  <g fill="#0b2748" font-family="Arial, sans-serif">
    <text x="56" y="75" font-size="25" font-weight="700" letter-spacing="2">NCRP EXPERIENCE PROTOTYPE</text>
    <text x="56" y="124" font-size="42" font-weight="800">SYNTHETIC DEMO ID</text>
  </g>
  <rect x="56" y="202" width="210" height="238" rx="6" fill="#eaf2f8" stroke="#8ca6ba" stroke-width="3"/>
  <circle cx="161" cy="282" r="50" fill="#9eb5c6"/>
  <path d="M91 414c7-72 39-106 70-106s63 34 70 106" fill="#9eb5c6"/>
  <g fill="#1b2633" font-family="Arial, sans-serif">
    <text x="316" y="224" font-size="20" fill="#53606d">Identity document</text>
    <text x="316" y="268" font-size="31" font-weight="700">Selected demo citizen</text>
    <text x="316" y="330" font-size="20" fill="#53606d">Document status</text>
    <text x="316" y="368" font-size="25" font-weight="700" fill="#237a4b">Synthetic identity document</text>
    <text x="316" y="424" font-size="20" fill="#53606d">Reference</text>
    <text x="316" y="460" font-size="24" font-weight="700">DEMO-ID · NO REAL IDENTIFIER</text>
  </g>
  <rect x="56" y="500" width="848" height="58" rx="4" fill="#eaf2f8"/>
  <text x="480" y="537" text-anchor="middle" fill="#113a63" font-family="Arial, sans-serif" font-size="19" font-weight="700">NOT A GOVERNMENT DOCUMENT · SYNTHETIC TEST ASSET</text>
</svg>
